<svg xmlns="http://www.w3.org/2000/svg" xmlns:xlink="http://www.w3.org/1999/xlink" version="1.1" id="Layer_1" width="75" height="75" x="0px" y="0px" viewBox="-374 525.9 87.7 88.1" enable-background="new -374 525.9 87.7 88.1" xml:space="preserve" class="injected-svg">
<path fill="#E61665" d="M-309.8,558.7c0.8-1.5,2.1-3.1,3.5-4.5c2.1-2,4.6-3.2,6.5-3.2s2.5,0.6,2.8,0.6s0.6-0.4,1-0.6  c0.1,0,0.1-0.1,0.3-0.1s0.6,0.4,0.6,0.6s0,0.1-0.1,0.3c-0.1,0.4-0.4,0.7-0.4,1c0,0.3,0.8,0.8,0.8,3.1c0,2.1-1.4,5.3-3.2,7.6  c-1.1,1.4-2.1,2-2.5,2.4c-0.3,0.3-0.3,0.7-0.6,0.8c-0.3,0.3-0.4,0-0.6,0.3c-0.1,0.1-0.4,0.3-0.6,0.1c-0.1,0,0,0.1-0.3,0.1  c-0.1,0.1-0.3,0-0.4,0.1c-0.3,0-0.1,0.1-0.7,0.3c0.1,0.1,1.1,0,1.4,0c0.3,0,0.8-0.1,1.1-0.1s0.3,0,0.4,0c0.3,0,0.1,0,0.3,0  c0.1,0,0.6-0.1,0.8,0c0.1-0.1,0.6,0,0.7,0c0.1,0,0.1,0.1,0.3,0.1c0.1,0,0.4,0,0.7,0c0,0,0.1,0,0.3,0.1c0.4,0,0.8,0.3,1,0.4  c0.1,0.3,0.3,0,0.4,0.1c0.1,0.1,0.4,0.1,0.4,0.4c0,0.1,0,0.1,0,0.3c0,0,0.3,0,0.4,0.1l0.1,0.1c0,0.1,0.3,0.1,0.3,0.4  c0.4,0,0.7,0.4,0.7,0.7v0.3c0,0,0.1,0.1,0.3,0.1c0.1,0,0.4,0.6,0.3,0.8c0,0.1,0,0.1,0,0.3c0,2-3.8,3.6-8.8,3.6c-2,0-2.7-0.8-2.8-1.1  c0-0.1,0-0.3,0-0.4c0-0.1-0.3-0.4-0.1-0.7c0,0-0.1-0.1-0.1-0.4c0-0.4,0.1-0.4,0.1-0.6s0-0.1,0-0.3c0-0.3,0.1-0.3,0.1-0.6  c0-0.3,0.1,0,0.3-0.3c0.1-0.3,0.1,0,0.1-0.4c0-0.3,0-0.3,0.4-0.4c0,0,0-0.4,0.4-0.4c0.1,0,0-0.1,0.1-0.3c0-0.1,0.3,0,0.3-0.1  c0-0.1,0.4-0.4,0.7-0.4c-1.3,0-2,0.3-2.5,0.3c-0.4,0-0.6-0.1-2.1,0.3c-2,0.4-5.8,2.4-7.6,3.5c-2.2,1.4-8.3,5.6-10.1,9.1  c-0.3,0.6-1,3.9-1.8,7c-1,3.5-2.1,6.9-2.1,7.4c0.6-0.7,1.1-1.3,1.7-1.3c1,0,0.7,1.3,0.8,1.4s0.1-0.3,0.1-0.6c0-0.3,0-1.1,0.6-1.8  c0.6-0.8,1.5-1.8,2.7-2.7c1.1-0.8,2-3.2,2.5-5c0.6-1.7,1.7-3.6,3.2-3.6c1.1,0,1.7,1,2,1.4s0.6,1.5,1,1.4c0.8-0.1,3.1-4.9,4.9-6.9  c0.8-0.8,1.8-2,3.5-2c2.9,0,2.5,4.1,3.6,4.1c0.7,0,1.3-1.1,1.7-1.7c0.7-1.1,3.1-2.9,4.5-2.9s1.5,1.1,1.5,2.1c0,0.8-0.1,1.5,0.6,1.5  c0.4,0,2-2.5,3.6-2.5c0.7,0,1.4,0.4,1.4,1.4c0,0.8-0.1,1.3-0.1,1.5c0,0.3,0.3,0.4,0.6,0.4c0.4,0,0.8-0.1,1.1-0.1  c0.7,0,1.4,0.4,1.4,1.5c0,1.1-0.7,2-1.4,2.9c-0.3,0.3-0.4,0.7-0.1,1.1c0.4,0.7,1.1,0.8,1.1,1.4c0,1.4-1,2-1.8,2.1  c-0.8,0.1-2.4,0.3-2.4,1.4c0,1,1.3,1.5,1.3,3.2c0,0.7-0.3,1.3-1.3,1.8c-1.1,0.6-3.1,0.7-3.5,0.7c-1,0-2.2-0.1-3.1-0.1  c-0.8,0-1.5,0-1.5,0.4c0,0.8,1.8,1.5,1.8,3.4s-2.8,2.2-4.5,2.2c-2,0-3.5-0.4-5.2-1c-0.8-0.3-2.7-1.1-3.9-1.1c-0.7,0-1.1,0.3-1.1,0.6  c0,0.6,1.4,1.5,1.4,2.9c0,1.1-1,1.5-1.8,1.5c-3.2,0-5.5-3.8-10.1-3.8c-1.1,0-1.7,0.4-3.1,0.4c-1.8,0-2.4-0.6-2.2-1.7  c-1.1,0.6-2.5,1.7-2.5,3.2c0,1.3,0.1,1.8,0.6,2.4c0.4,0.4,1,0.7,1.1,1c0.3,0.3-0.1,1.1,0.1,2.7c0.1,1.1,0.6,2.8,0.7,3.2  c0.1,0.4-1.1,0.6-1.5,0.6c-0.6,0-2.7,0-2.7-0.6c-0.1-1.5-1.5-7.3-2-8.6c-0.7-1.7-1-1.5-2-2.4c-0.8-0.7-5.2-3.6-7.6-3.6  c-0.6,0-0.3-0.1-0.8-0.1c-0.3,0,0,0-0.3,0c-0.1,0-0.1,0.1-0.4,0.1c-0.1,0,0,0.6-0.1,0.6c-0.1,0-0.1,0.1-0.1,0.4  c0,0.3-0.3,0.4-0.3,0.6c0,0.1-0.3,0-0.3,0.3c0,0.3,0.1,0.3,0,0.4c-0.1,0.3-0.1,0.4-0.3,0.4c-0.1,0-0.1,0-0.1,0.1  c0,0.3,0.1,0.3,0,0.4c-0.7-0.6-1-0.6-1-0.4s0,0.1-0.1,0.3c-0.1,0-0.3,0.1-0.3,0.3s0,0-0.1,0.1c-0.1,0.3-0.1,0.1-0.3,0.1  c-0.4,0-0.3,0.3-1,0.3c-2.1,0-4.8-3.8-4.8-6.7c0-2.1,0.3-2,0.4-2.4c0-0.4,0.4-0.8,0.7-0.8s0.1-0.1,0.4-0.1c0-0.1,0.3-0.1,0.4-0.3  c0.1-0.1,0.3-0.1,0.6,0c0.1,0,0.1-0.1,0.4-0.1c0.1,0,0.3,0.1,0.4,0.1c0.3,0,0.1,0,0.4,0c0.1,0,0.3,0,0.6,0.1c0.1,0,0.1-0.1,0.3,0  c0.1,0,0.3,0.1,0.3,0.3c0.1,0,0.3,0,0.6,0.1c0.1,0,0.1,0.1,0.3,0.3c0.1,0,0.1-0.1,0.4,0s0.3,0.1,0.4,0.4c0.1,0.3,0.1,0,0.4,0.1  c0.4,0.3,0.1,0.4,0.4,0.4c0.1,0,0.1,0,0.3,0.1c0.1,0.1,0,0.3,0.1,0.3c0,0,0.1,0,0.1,0.3c0,0.1,0.3,0.3,0.4,0.6  c0.1,0.1,0.4,0.4,0.6,0.4c0.1,0,0.1-0.1-0.1-0.4c-0.3-0.3-0.3-0.1-0.4-0.7c0-0.1-0.3-0.1-0.3-0.4c0-0.1-0.3-0.4-0.3-0.6  c0-0.1,0-0.3-0.1-0.3c-0.1,0-0.1-0.1-0.1-0.1c-0.1-0.3,0-0.3,0-0.4c0-0.1-0.1,0-0.1-0.1s0-0.3,0-0.4c0-0.1-0.1,0-0.1-0.3  c0-0.1,0-0.1,0-0.4c0-0.3-0.1-0.1-0.1-0.4c0-0.1,0-0.1,0-0.4c0-0.3,0,0,0-0.3s0.1-0.1,0.1-0.4c0-0.1,0-0.3,0.1-0.3  c0-0.1-0.1-0.1,0-0.3c0.3-0.4,0.8-1.3,3.5-1.3c3.2,0,6.2,0.8,7.4,2.5c0.1,0.1,0.3,0.1,0.3,0.4c0,0.3,0.1,0.3,0.1,0.6  c0,0.1-0.1,0.4-0.1,0.6c0,0.4,0,0.8-0.1,0.8c-0.1,0,0,0.7-0.3,0.7c-0.1,0,0,0.3-0.3,0.3c-0.3,0,0,0.7-0.3,0.7c-0.1,0-0.3,0-0.4,0.3  c0,0.1-0.1,0.4-0.4,0.4s-0.1,0-0.4,0.1c-0.4,0.4-0.1,0.4-0.3,0.6c-0.3,0.3-0.4-0.4-0.6-0.1c-0.1,0.1-0.1,0.1-0.1,0.3  c0,0.3,0,0.1-0.3,0.1c-0.3-0.1-0.4,0.3-0.4,0.3c0.1,0.1,0,0.1-0.1,0c0,0-0.1,0-0.3,0c-0.1,0-0.4,0-0.4,0.1c0,0.3,0,0.3,0,0.3  c-0.1,0,0-0.3-0.3-0.3c-0.1,0-0.3,0-0.3,0c0,0.1,2.5,1.4,3.1,1.7c1.4,0.8,2.5,1.7,3.2,1.7c1,0,3.5-6.5,3.4-9.5c0-1-0.1-1.1,0-1.3  c0-0.3-0.6-0.3-0.6-1.5c0-0.3,0-0.8,0.3-1.1c0.1-0.1,0.4-0.3,0.7-0.3c0.3,0,0.8,0.4,0.8,0.7c0.3-0.4,1-3.6,1-4.6  c0-0.3-0.1-0.8-0.3-1c-0.1-0.1-1.3-0.3-2.2-1.7c0-0.1-0.1-0.1-0.3-0.1c0,0,0,0.1,0,0.3c0,0.3-0.6,1.1-1.4,1.1  c-1.4,0-1.8-0.7-3.5-0.7c-0.8,0-1.3,0.3-1.7,0.7c-0.8,0.7-2.1,1.3-2.7,1.3c-1.5,0-0.7-2.1-1.7-2.1c-0.7,0-0.7,1.1-1,1.8  c-0.4,1.1-3.1,4.3-4.6,4.3c-1.4,0-0.8-2.5-1.7-2.5c-0.6,0-0.8,0.7-1,1.3c-0.7,2.1-1.5,3.6-2.4,4.6c-0.8,1-2,2.8-3.4,2.8  c-1.3,0-1-2-1.5-2.5c-0.3-0.3-0.8-0.4-1.3,0.1c-0.7,1.3-1.4,3.9-3.4,3.9c-1.1,0-1.4-0.8-1.5-1.5c0-0.6,0-0.7-0.1-1.1  c-0.1-0.4-0.1-0.7-0.6-0.7c-0.3,0-0.6,0.1-0.8,0.8s-1.1,2-2.8,2c-1.4,0-2-0.6-2-1c0-0.6,0.1-1.4-1-1.1c-1.3,0.3-2-1.5-2-2.2  c0-1.4,1-2.4,1-2.8c-0.3-0.1-1.5-0.4-1.5-1.8c0-3.2,3.4-2.4,3.4-3.8s-2.4-2-2.4-3.4c0-2.8,3.8-3.4,4.5-3.4s1.5,0.3,1.8,0.3  c0.4,0,1.4-0.1,1.4-0.7c0-0.4-0.4-1.1-0.8-1.5c-0.3-0.7-0.8-1.1-0.8-1.8c0-2,2.1-2.8,3.5-2.8c2.9,0,4.9,0.6,5.6,1  c0.8,0.4,1.5,1,2.2,1c0.3,0,0.6-0.1,0.6-0.4c0-0.7-1.1-1.5-1.1-2.8c0-1,0.8-2.1,2.4-2.1c1.5,0,3.8,0.8,4.9,1.5  c1.1,0.7,3.1,2.7,4.1,2.7c1,0-0.1-3.1,2.1-3.1c2,0,4.2,2.1,5.9,5c0.3,0.6,1.1,1.7,1.8,2.1c1.1,0.7,2.5,2.8,2.8,4.3  c0,0.4,0.4,0.7,0.4,0.7c-0.1-0.4-0.1-1.4,0.4-1.5c0.6-0.1,1.5,0.7,1.8,1c0.1-0.4-0.3-1.8-0.4-2.1c-0.1-0.3-1-3.4-1.3-3.9  s-1.3-2.9-1.5-3.5c-0.6-1.1-1.7-1.5-2.2-1.8c-0.8-0.4-1.7-1.5-2-1.7c-0.3-0.1-0.3-0.1-0.3-0.1c-0.1,0-0.3,0.7-1.4,0.7  c-1.1,0-2.5-1.7-3.8-2.5c-2-1.1-4.5-1.4-5.5-1.5c-0.7-0.1-2.9-0.6-3.9-1.3c-0.7-0.4-1-1.1-1-1.5c0-1.1,1.4-1.7,1.7-1.8  c0.3-0.1,0.7-0.3,0.7-0.6c0-0.3-0.6-0.6-1-0.8c-0.6-0.3-1.4-0.4-2.5-0.4c-1.1,0-2.9-0.3-3.9-0.8c-1-0.4-3.2-2-3.2-3.4  c0-1,0.4-1.5,1.3-2c0.7-0.4,2-0.8,2-1.4c0-0.4-0.4-0.6-0.7-0.7c-0.4-0.3-2.2-0.6-2.9-0.7c-1-0.1-4.9-1-4.9-3.4  c0.1-2.2,3.6-2.4,3.6-2.8c0-0.6-1-0.8-2.1-1.5c-1.3-0.8-2.7-2-2.7-2.9c0-2.2,3.1-1.5,3.1-2.4c0-0.1-0.1-0.4-0.3-0.6l-1-1  c-0.3-0.4-0.7-1-0.7-1.3c0-0.8,1-0.8,1-1.3c0-0.3-0.1-0.4-0.1-0.7c0-0.6,0.7-1.3,2-0.8c0.4,0.1,0.7,0.1,1.1,0c0.4,0,0.6-0.6,1.4-0.6  c1.1,0,1.5,1.1,1.8,1.5c0.3,0.3,0.3,0.6,0.6,0.6c0.3,0,0.4-0.8,0.7-1.3c0.1-0.4,0.8-0.8,1.4-0.8c1.7,0,3.1,1.4,3.8,3.1  c0.1,0.3,0.4,0.7,0.6,0.7c0.7,0,1.3-2.8,3.4-2.8c1.3,0,1.8,0.4,2.4,0.8c0.7,0.7,0.8,2.2,1.3,3.2c0.3,1,0.1,3.5,0.1,4.1  c0,0.6,0.1,2,0.6,2c0.8,0,1.5-2.1,3.5-2.1c0.8,0,2.2,1.1,2.2,3.9c0,2.9-1.3,3.9-1.3,6.2c0,0.4,0,0.8,0.4,0.8s0.6-0.7,0.8-1  c0.3-0.4,1-0.7,2-0.7c1.1,0,1.5,1,1.5,2.4c0,1-0.6,4.6-0.6,6.5s0.7,2.8,0.7,5c0,1.7-0.8,2.8-0.8,3.6c0,0.3,0.4,0.8,0.7,0.8  c-0.4-0.4,0-1.5,0.3-1.8c0.3-0.1,0.6,0,0.8,0c-0.3-1.5,0.4-2.8,0.8-2.9c0.7-0.1,2.1,1.3,2.2,1.4c0.1-0.1,0.4-0.4,0.7-0.4  c0.4,0,0.8,0.3,1.3,0.7c0.1-0.1,0.1-0.3,0.1-0.6c0-0.4-0.7-2.2-0.7-3.8c0-1.8,0.8-3.6,0.8-5c0-2.8-0.8-4.5-0.8-5.8  c0-2.8,0.8-4.2,2.1-4.2c1.3,0,2,1.3,2.8,1.3c0.6,0,1-1.1,1-1.8c0.4-3.1,0.7-10,4.2-11.6c0.7-0.4,1.5-0.1,2.2,0.6  c1,1.7,1.3,3.1,2.1,3.1c0.7,0,1.5-1.5,1.8-2.2c0.4-1.1,2.2-2.9,3.9-2.9c2.9,0,2,3.2,3.4,3.2c1.5,0,2.7-2.8,5.2-2.8  c0.7,0,1.5,0.7,1.5,1.7c0,0.6,0,1,0,1.3c0,0.3,0,0.7,0.3,0.7s1.3-1,2-1c1.3,0,1,1.3,1.5,1.5c0.3,0.3,1.5,0.3,1.5,1.5  c0,1.7-1.5,1.5-1.5,2.4c0,0.6,1.4,1,1.4,1.8c0,1-1,2-1.8,2.1c-0.6,0-2.7,0-2.7,0.8c0,0.1,0.6,0.4,1,0.8c0.6,0.4,1.1,1,1.1,1.8  c0,1.1-1.3,2.2-5.3,2.2c-0.7,0-0.8,0-1.5,0c-0.3,0-0.8,0-1.4,0.1c-0.7,0.1-1.4,0.4-1.4,0.8c0,1.1,2.2,1.1,2.2,2.5  c0,1.1-0.7,1.8-1.7,2.2c-0.7,0.4-3.1,1.4-4.6,1.4c-2.9,0-3.4-0.4-4.2-0.4c-0.7,0-1.3,0.3-1.3,0.7c0,0.4,0.4,0.7,1.1,1.1  c0.4,0.3,2.1,0.8,2.1,2.2c0,1.5-2.4,2.2-3.5,2.5c-2.8,0.6-4.3,1.3-6.2,3.1c-1,1-2.9,3.4-5,2.4c-0.8,1.3-2.1,2.5-2.2,3.5  c-0.3,1.8,2.4,10.4,3.6,10.4c0.7,0,1.8-1,3.4-2c1-0.7,2.1-1.4,3.4-2.2c5.3-3.6,9.7-5.5,9.7-6.2c0-0.6-0.4-1-0.6-1.3  c-0.1-0.3-0.3-0.4-0.4-0.6c-0.1-0.3-0.1-0.3-0.1-0.4c-0.1-0.1-0.3-0.3-0.3-0.6c0-0.3,0-0.3,0-0.4c-0.1,0-0.1-0.3-0.1-0.4  c0-0.1,0-0.1,0-0.4c0-0.1-0.1,0-0.1-0.4c0-0.4,0.1-0.4,0.1-0.6c0,0-0.3-0.1-0.3-0.4c0-0.3,0.3-0.4,0.3-0.6s-0.1-0.1-0.1-0.3  c0-0.7,0.1-0.6,0.3-0.7c0-0.1,0-0.6,0.3-0.7c0.3-0.1,0.4-0.4,0.7-0.4C-310.2,558.9-310,558.7-309.8,558.7"></path>
</svg>
